<svg width="18" height="15" viewBox="0 0 18 15" fill="none" xmlns="http://www.w3.org/2000/svg">
<path fill-rule="evenodd" clip-rule="evenodd" d="M1.98612 14.5445C2.10779 14.667 2.26779 14.7278 2.42779 14.7278C2.58779 14.7278 2.74779 14.667 2.86946 14.5445L16.0145 1.4003C16.2586 1.15613 16.2586 0.7603 16.0145 0.516133C15.7703 0.271966 15.3753 0.271966 15.1311 0.516133L13.3906 2.25663C10.5353 0.281895 6.92776 0.397145 4.18371 2.56879C2.76704 3.68296 1.56871 5.31379 0.717876 7.28379C0.649543 7.44129 0.649543 7.61963 0.717876 7.77796C1.4517 9.48828 2.45094 10.9408 3.62889 12.0184L1.98612 13.6611C1.74196 13.9053 1.74196 14.3003 1.98612 14.5445ZM4.51391 11.1333C3.50508 10.2239 2.63652 8.99237 1.97538 7.53213C2.73371 5.86379 3.76121 4.49213 4.95788 3.55046C7.21907 1.76093 10.1125 1.62069 12.4898 3.15745L10.822 4.8253C10.2906 4.46625 9.65234 4.26759 8.99988 4.26759C7.20155 4.26759 5.73822 5.73175 5.73822 7.53175C5.73822 8.19005 5.93315 8.81865 6.29542 9.35184L4.51391 11.1333ZM7.20621 8.44105L9.91099 5.73626C9.63255 5.59438 9.31936 5.51759 8.99988 5.51759C7.89072 5.51759 6.98822 6.42092 6.98822 7.53175C6.98822 7.85281 7.06377 8.16272 7.20621 8.44105Z" fill=""/>
<path d="M8.85872 10.2293C8.91372 10.5309 9.17705 10.7426 9.47288 10.7426C9.50955 10.7426 9.54788 10.7393 9.58538 10.7326C10.912 10.4909 11.9637 9.43759 12.2029 8.11009C12.2637 7.77009 12.0379 7.44509 11.6979 7.38425C11.3587 7.32592 11.0337 7.54926 10.972 7.88842C10.8254 8.70592 10.1787 9.35425 9.36205 9.50259C9.02205 9.56425 8.79705 9.89009 8.85872 10.2293Z" fill=""/>
<path d="M9.00012 14.2411C8.21929 14.2411 7.44262 14.1144 6.69262 13.8653C6.36512 13.7561 6.18762 13.4019 6.29679 13.0744C6.40595 12.7461 6.75845 12.5719 7.08762 12.6786C7.71012 12.8861 8.35345 12.9911 9.00012 12.9911C11.8568 12.9911 14.4676 10.9561 16.0251 7.53027C15.6451 6.69778 15.2026 5.94361 14.7076 5.28527C14.5001 5.00944 14.5551 4.61694 14.831 4.40944C15.106 4.20194 15.4985 4.25861 15.706 4.53361C16.3093 5.33444 16.8393 6.26028 17.2818 7.28194C17.351 7.44028 17.351 7.62028 17.2818 7.77778C15.5351 11.8253 12.4393 14.2411 9.00012 14.2411Z" fill=""/>
</svg>
